<mxfile host="www.draw.io" modified="2019-12-01T10:52:05.179Z" agent="Mozilla/5.0 (Windows NT 10.0; Win64; x64) AppleWebKit/537.36 (KHTML, like Gecko) Chrome/77.0.3865.90 Safari/537.36" etag="MM20T3u8lVYe8PWxdyy7" version="12.3.3" type="github" pages="1">
  <diagram id="RrI3z_8uuMFILNwTsshT" name="Page-1">
    <mxGraphModel dx="971" dy="498" grid="1" gridSize="10" guides="1" tooltips="1" connect="1" arrows="1" fold="1" page="1" pageScale="1" pageWidth="850" pageHeight="1100" math="0" shadow="0">
      <root>
        <mxCell id="0"/>
        <mxCell id="1" parent="0"/>
        <mxCell id="VKGtjj8yHCHSWjzNDZ6M-1" value="Nurse" style="shape=umlActor;verticalLabelPosition=bottom;labelBackgroundColor=#ffffff;verticalAlign=top;html=1;outlineConnect=0;" parent="1" vertex="1">
          <mxGeometry x="50" y="229" width="30" height="60" as="geometry"/>
        </mxCell>
        <mxCell id="VKGtjj8yHCHSWjzNDZ6M-2" value="" style="rounded=0;whiteSpace=wrap;html=1;" parent="1" vertex="1">
          <mxGeometry x="160" y="199" width="230" height="660" as="geometry"/>
        </mxCell>
        <mxCell id="VKGtjj8yHCHSWjzNDZ6M-3" value="Register Patient" style="ellipse;whiteSpace=wrap;html=1;" parent="1" vertex="1">
          <mxGeometry x="190" y="219" width="170" height="80" as="geometry"/>
        </mxCell>
        <mxCell id="VKGtjj8yHCHSWjzNDZ6M-5" style="edgeStyle=orthogonalEdgeStyle;rounded=0;orthogonalLoop=1;jettySize=auto;html=1;exitX=0.5;exitY=0.5;exitDx=0;exitDy=0;exitPerimeter=0;entryX=0.13;entryY=0.096;entryDx=0;entryDy=0;entryPerimeter=0;" parent="1" source="VKGtjj8yHCHSWjzNDZ6M-1" target="VKGtjj8yHCHSWjzNDZ6M-2" edge="1">
          <mxGeometry relative="1" as="geometry">
            <Array as="points">
              <mxPoint x="65" y="262"/>
            </Array>
          </mxGeometry>
        </mxCell>
        <mxCell id="VKGtjj8yHCHSWjzNDZ6M-6" value="&lt;b&gt;Use case:&lt;/b&gt; Register Patient&lt;br&gt;&lt;b&gt;Actor: &lt;/b&gt;Nurse&lt;br&gt;&lt;b&gt;Goal:&lt;/b&gt;&amp;nbsp;Patient must be registered in the IT System&lt;br&gt;&lt;b&gt;Main Scenario:&lt;/b&gt;&lt;br&gt;&amp;nbsp;1) Administrator is asked to register arrived patient&lt;br&gt;2) System presents registration form&lt;br&gt;3) Administrator registers the patient with the&amp;nbsp; required info:&lt;br&gt;(national id number,&amp;nbsp;&amp;nbsp;name of the patient, registration number, result of emergency assessment and room number)&lt;br&gt;4) System confirms registration&amp;nbsp;" style="rounded=0;whiteSpace=wrap;html=1;fillColor=#fff2cc;strokeColor=#d6b656;align=left;comic=0;glass=0;" parent="1" vertex="1">
          <mxGeometry x="420" y="199" width="390" height="150" as="geometry"/>
        </mxCell>
        <mxCell id="VKGtjj8yHCHSWjzNDZ6M-9" style="edgeStyle=orthogonalEdgeStyle;rounded=0;orthogonalLoop=1;jettySize=auto;html=1;" parent="1" source="VKGtjj8yHCHSWjzNDZ6M-7" target="VKGtjj8yHCHSWjzNDZ6M-8" edge="1">
          <mxGeometry relative="1" as="geometry"/>
        </mxCell>
        <mxCell id="VKGtjj8yHCHSWjzNDZ6M-7" value="Physician" style="shape=umlActor;verticalLabelPosition=bottom;labelBackgroundColor=#ffffff;verticalAlign=top;html=1;outlineConnect=0;rounded=0;glass=0;comic=0;" parent="1" vertex="1">
          <mxGeometry x="50" y="484" width="30" height="60" as="geometry"/>
        </mxCell>
        <mxCell id="VKGtjj8yHCHSWjzNDZ6M-8" value="Document result of actions carried out" style="ellipse;whiteSpace=wrap;html=1;rounded=0;glass=0;comic=0;" parent="1" vertex="1">
          <mxGeometry x="185" y="469" width="160" height="90" as="geometry"/>
        </mxCell>
        <mxCell id="VKGtjj8yHCHSWjzNDZ6M-10" value="&lt;b&gt;Use case:&lt;/b&gt; Document result of actions carried out&lt;br&gt;&lt;b&gt;Actor: &lt;/b&gt;Physician&lt;br&gt;&lt;b&gt;Goal:&lt;/b&gt;&amp;nbsp;Medical status of patient must be documented&lt;br&gt;&lt;b&gt;Main Scenario:&lt;/b&gt;&lt;br&gt;1) Find the patient and the planned actions in the system.&lt;br&gt;2) System presents patient and actions data.&lt;br&gt;3) Physician documents the results and connects them to the right actions.&lt;br&gt;4) Systemet confirms documentation" style="rounded=0;whiteSpace=wrap;html=1;fillColor=#fff2cc;strokeColor=#d6b656;align=left;comic=0;glass=0;" parent="1" vertex="1">
          <mxGeometry x="425" y="454" width="390" height="150" as="geometry"/>
        </mxCell>
        <mxCell id="VKGtjj8yHCHSWjzNDZ6M-13" style="edgeStyle=orthogonalEdgeStyle;rounded=0;orthogonalLoop=1;jettySize=auto;html=1;" parent="1" source="VKGtjj8yHCHSWjzNDZ6M-11" target="VKGtjj8yHCHSWjzNDZ6M-12" edge="1">
          <mxGeometry relative="1" as="geometry"/>
        </mxCell>
        <mxCell id="VKGtjj8yHCHSWjzNDZ6M-11" value="Physician" style="shape=umlActor;verticalLabelPosition=bottom;labelBackgroundColor=#ffffff;verticalAlign=top;html=1;outlineConnect=0;rounded=0;glass=0;comic=0;" parent="1" vertex="1">
          <mxGeometry x="50" y="629" width="30" height="60" as="geometry"/>
        </mxCell>
        <mxCell id="VKGtjj8yHCHSWjzNDZ6M-12" value="Register Medicine&amp;nbsp;" style="ellipse;whiteSpace=wrap;html=1;rounded=0;glass=0;comic=0;" parent="1" vertex="1">
          <mxGeometry x="190" y="609" width="155" height="100" as="geometry"/>
        </mxCell>
        <mxCell id="VKGtjj8yHCHSWjzNDZ6M-17" style="edgeStyle=orthogonalEdgeStyle;rounded=0;orthogonalLoop=1;jettySize=auto;html=1;" parent="1" source="VKGtjj8yHCHSWjzNDZ6M-14" target="VKGtjj8yHCHSWjzNDZ6M-15" edge="1">
          <mxGeometry relative="1" as="geometry"/>
        </mxCell>
        <mxCell id="VKGtjj8yHCHSWjzNDZ6M-14" value="Physician" style="shape=umlActor;verticalLabelPosition=bottom;labelBackgroundColor=#ffffff;verticalAlign=top;html=1;outlineConnect=0;rounded=0;glass=0;comic=0;" parent="1" vertex="1">
          <mxGeometry x="50" y="749" width="30" height="60" as="geometry"/>
        </mxCell>
        <mxCell id="VKGtjj8yHCHSWjzNDZ6M-15" value="Register referals" style="ellipse;whiteSpace=wrap;html=1;rounded=0;glass=0;comic=0;" parent="1" vertex="1">
          <mxGeometry x="190" y="739" width="160" height="80" as="geometry"/>
        </mxCell>
        <mxCell id="VKGtjj8yHCHSWjzNDZ6M-23" style="edgeStyle=orthogonalEdgeStyle;rounded=0;orthogonalLoop=1;jettySize=auto;html=1;entryX=0;entryY=0.5;entryDx=0;entryDy=0;" parent="1" source="VKGtjj8yHCHSWjzNDZ6M-20" target="VKGtjj8yHCHSWjzNDZ6M-22" edge="1">
          <mxGeometry relative="1" as="geometry"/>
        </mxCell>
        <mxCell id="VKGtjj8yHCHSWjzNDZ6M-20" value="Nurse" style="shape=umlActor;verticalLabelPosition=bottom;labelBackgroundColor=#ffffff;verticalAlign=top;html=1;outlineConnect=0;rounded=0;glass=0;comic=0;" parent="1" vertex="1">
          <mxGeometry x="50" y="369" width="30" height="60" as="geometry"/>
        </mxCell>
        <mxCell id="VKGtjj8yHCHSWjzNDZ6M-22" value="Register actions" style="ellipse;whiteSpace=wrap;html=1;rounded=0;glass=0;comic=0;" parent="1" vertex="1">
          <mxGeometry x="180" y="359" width="165" height="80" as="geometry"/>
        </mxCell>
        <mxCell id="OBdghMZqJNIUUInzUgaj-4" value="&lt;font style=&quot;font-size: 19px&quot;&gt;&lt;b&gt;Task 4 (Max 3 points)&lt;/b&gt;&lt;/font&gt;" style="text;html=1;" vertex="1" parent="1">
          <mxGeometry x="290" y="30" width="140" height="30" as="geometry"/>
        </mxCell>
        <mxCell id="OBdghMZqJNIUUInzUgaj-11" value="i) Create a use case diagram with the two use cases “Register patient” and “Document result of actions carried out”,&amp;nbsp;&lt;br&gt;plus three (3) more use cases identified by you by reading the text for tasks 1 and 2.&amp;nbsp;&lt;br&gt;(Note that use case is an interaction between a user and an IT system).&lt;br&gt;&lt;br&gt;&lt;div&gt;ii) Make use case descriptions for the two use cases “Register patient” and&amp;nbsp;&amp;nbsp;&lt;span&gt;“Document result of actions carried out”,&amp;nbsp;&lt;/span&gt;&lt;/div&gt;&lt;div&gt;see the description of the two use cases above.&amp;nbsp;&lt;span&gt;You do NOT need to do descriptions&amp;nbsp;&lt;/span&gt;&lt;span&gt;for the other three (3) use cases.&lt;/span&gt;&lt;/div&gt;" style="rounded=1;whiteSpace=wrap;html=1;align=left;fillColor=#dae8fc;strokeColor=#6c8ebf;" vertex="1" parent="1">
          <mxGeometry x="40" y="72" width="790" height="100" as="geometry"/>
        </mxCell>
      </root>
    </mxGraphModel>
  </diagram>
</mxfile>
